<svg id="Layer_1" fill="#4169E1" height="512" viewBox="0 0 512 512" width="512" xmlns="http://www.w3.org/2000/svg" data-name="Layer 1"><path d="m150.338 337.865a6 6 0 1 0 -11.795 2.211l11.189 59.7a6 6 0 0 0 11.795-2.211z"/><path d="m141.194 321.677a6 6 0 0 0 4.793-7l-1.95-10.41a6 6 0 0 0 -11.8 2.21l1.95 10.41a5.992 5.992 0 0 0 7 4.792z"/><path d="m417.31 206.35h-10.5a37.676 37.676 0 0 0 2.432-3.784 37.255 37.255 0 0 0 -2.089-39.368 26.781 26.781 0 0 0 -37.453-34.393 57.463 57.463 0 0 0 -40.7-91.342 30.516 30.516 0 1 0 -54.585 27.275 57.142 57.142 0 0 0 -4.065 8 42.885 42.885 0 0 0 -10.915-2.315 42.752 42.752 0 0 0 -65.8-5.638 30.559 30.559 0 0 0 -35.156 20.335c-.955-.077-1.914-.13-2.879-.13a35.4 35.4 0 0 0 -20.606 64.2 42.934 42.934 0 0 0 1.428 8.34 42.774 42.774 0 0 0 -37.853 48.79h-3.879a6 6 0 0 0 -5.9 7.106l50.7 270.358a10 10 0 0 0 9.83 8.166h213.36a9.993 9.993 0 0 0 9.828-8.154l50.7-270.34a6 6 0 0 0 -5.9-7.106zm-276.43-37.05a29.645 29.645 0 0 1 3.646.223 6 6 0 0 0 6.022-8.806 30.31 30.31 0 0 1 -2.349-5.689 35.513 35.513 0 0 0 7.391.792 6 6 0 0 0 0-12 23.415 23.415 0 1 1 .01-46.83 23.376 23.376 0 0 1 13.084 4 6 6 0 0 0 6.732-9.934 35.106 35.106 0 0 0 -5.26-2.939 18.479 18.479 0 0 1 17.314-11.957 18.256 18.256 0 0 1 6.153 1.051 6 6 0 0 0 6.683-1.879 30.749 30.749 0 0 1 50.547 3.956 6.062 6.062 0 0 0 5.237 3 30.62 30.62 0 0 1 14.87 3.842 6 6 0 0 0 8.7-3.633 45.261 45.261 0 0 1 6.757-14.167 6 6 0 0 0 -.021-6.993 18.3 18.3 0 0 1 -3.466-10.777 18.507 18.507 0 0 1 36.164-5.55 6.011 6.011 0 0 0 5.6 4.209 45.473 45.473 0 0 1 1.793 90.831 31.131 31.131 0 0 0 -57.369-3.149 26.231 26.231 0 0 0 4.727 52.029c.345 0 .689-.007 1.034-.02a28.056 28.056 0 0 0 53.2-9.075 25.059 25.059 0 0 1 24.821-10.624 6 6 0 0 0 5.381-1.855 24.678 24.678 0 0 1 6.891-5.21 6 6 0 0 0 3.108-6.662 14.8 14.8 0 1 1 27.338 3.959 9.334 9.334 0 0 1 -.555.907 6 6 0 0 0 .439 7.434 25.176 25.176 0 0 1 -6.186 38.564l-133.3-.007h-6.1a31.051 31.051 0 0 0 -7.448-24.855 26.219 26.219 0 0 0 -49.768-15.839q-.195.465-.37.936a28.111 28.111 0 0 0 -24.228 39.746l-57.339-.007a30.7 30.7 0 0 1 30.117-37.022zm215.073-15.629a36.432 36.432 0 0 0 -4.245 3.318 36.987 36.987 0 0 0 -26.078 8c-.154-.332-.307-.666-.475-.993a30.976 30.976 0 0 0 3.053-12.041 57.163 57.163 0 0 0 30.75-12.094 26.667 26.667 0 0 0 -3.005 13.81zm-42.636 13.888a15.952 15.952 0 0 1 2.933 9.241c0 .207-.006.42-.019.627v.112a16.054 16.054 0 0 1 -31.583 3.272 6 6 0 0 0 -7.312-4.321 13.976 13.976 0 0 1 -3.485.44 14.224 14.224 0 0 1 -.383-28.442 6 6 0 0 0 5.539-4.1 19.115 19.115 0 0 1 37 3.01 19.3 19.3 0 0 1 .243 3.054 19.04 19.04 0 0 1 -3.063 10.384 6 6 0 0 0 .13 6.723zm-81.577 20.141a19.091 19.091 0 0 1 4.982 21.791c-.022.05-.03.069-.049.119l-.081.175-.047.1a19.13 19.13 0 0 1 -33.264 2.91 5.992 5.992 0 0 0 -6.245-2.486 16.056 16.056 0 1 1 -1.048-31.576 6 6 0 0 0 6.823-5.024 14.584 14.584 0 0 1 .956-3.413 14.221 14.221 0 0 1 26.348 10.704 6 6 0 0 0 1.625 6.7zm18.211 292.25h-49.312l-19.549-187.941a6 6 0 0 0 -11.936 1.241l19.42 186.7h-37.594l-49.06-261.63 59.441.008 4.073 39.147a6 6 0 0 0 11.935-1.241l-3.943-37.9h5.225a27.948 27.948 0 0 0 17.078 4.272 31.079 31.079 0 0 0 11.263 8.114 30.648 30.648 0 0 0 11.971 2.426 31.4 31.4 0 0 0 26.635-14.8h4.402l-.018 80.08a50.535 50.535 0 0 0 -.012 100.353zm12 0 .018-81.152a50.188 50.188 0 0 0 22.811-8.638 6 6 0 1 0 -6.84-9.86 38.5 38.5 0 1 1 12.421-14.207 6 6 0 0 0 10.69 5.454 50.555 50.555 0 0 0 -39.07-73.129l.019-80.077h76.575l-27.213 261.6zm99.069 0h-37.594l27.213-261.6h59.441z"/></svg>